# File created by Blade
# Date/Time:  Tue Jan 27 18:55:50 2015
# Frame Rate: 120.000 fps
#------------------------------------------------------
:FULLY-SPECIFIED
:DEGREES
3054
root -1.981363 32.913330 -7.274065 46.715239 -30.330124 -26.139481
Spine 3.885186 17.607220 0.469058
Head -21.125399 17.954271 -2.020970
LeftShoulder -18.776666 20.964649 14.735677
LeftArm -14.453305 -49.893046 -66.198970
LeftForeArm -25.143954 -0.000000 116.468789
LeftHand -14.119319 -0.000000 44.872775
LeftHandThumb1 -26.253704 0.000000 33.147579
RightShoulder 5.652773 22.410211 -7.949216
RightArm 41.478285 -45.904934 64.088611
RightForeArm -33.616018 0.000000 34.427126
RightHand -14.804034 -0.000000 10.406717
RightHandThumb1 -24.326973 -0.000000 -32.862282
LeftUpLeg -45.725157 25.990477 -0.639336
LeftLeg 19.765918 -0.000000 -0.000000
LeftFoot -34.573780 37.501441 -28.780718
LeftToeBase 9.205595 -0.000000 -0.000000
RightUpLeg -3.546109 -51.144067 -7.903576
RightLeg 91.055533 -0.000000 -0.000000
RightFoot -24.312984 -2.400344 38.383701
RightToeBase 8.316335 -0.000000 -0.000000
3055
root -1.978414 32.896757 -7.276346 46.913290 -30.472371 -26.185412
Spine 3.810842 17.597659 0.391474
Head -21.163370 18.033571 -2.125860
LeftShoulder -18.839445 20.990335 14.732759
LeftArm -14.435893 -50.037742 -65.909762
LeftForeArm -25.478879 -0.000000 116.504256
LeftHand -14.133324 -0.000000 44.630374
LeftHandThumb1 -26.253704 0.000000 33.147579
RightShoulder 5.697107 22.531567 -7.908862
RightArm 41.552998 -45.830983 64.077412
RightForeArm -33.825082 -0.000000 34.617418
RightHand -14.769650 0.000000 10.339792
RightHandThumb1 -24.326973 -0.000000 -32.862282
LeftUpLeg -46.079244 26.169507 -0.853068
LeftLeg 20.052796 -0.000000 -0.000000
LeftFoot -34.728808 37.393468 -28.798604
LeftToeBase 9.008052 -0.000000 -0.000000
RightUpLeg -3.769601 -50.779905 -7.849459
RightLeg 90.995669 -0.000000 -0.000000
RightFoot -24.360715 -2.434997 38.269977
RightToeBase 8.157748 -0.000000 -0.000000
3056
root -1.969264 32.881775 -7.279410 47.123656 -30.641271 -26.247075
Spine 3.761783 17.640852 0.339402
Head -21.226691 18.196730 -2.281494
LeftShoulder -18.860143 20.901505 14.728154
LeftArm -14.503578 -50.111488 -65.542946
LeftForeArm -25.763373 -0.000000 116.478571
LeftHand -14.176919 -0.000000 44.089611
LeftHandThumb1 -26.253704 0.000000 33.147579
RightShoulder 5.671515 22.521935 -7.871562
RightArm 41.843160 -45.713179 63.888329
RightForeArm -33.876380 -0.000000 34.824077
RightHand -14.783922 -0.000000 10.234369
RightHandThumb1 -24.326973 -0.000000 -32.862282
LeftUpLeg -46.391560 26.287876 -1.021787
LeftLeg 20.310925 -0.000000 -0.000000
LeftFoot -34.879296 37.394626 -28.833668
LeftToeBase 9.181722 -0.000000 -0.000000
RightUpLeg -4.061508 -50.430271 -7.785739
RightLeg 90.958015 -0.000000 -0.000000
RightFoot -24.275267 -2.701477 37.980551
RightToeBase 7.461273 -0.000000 -0.000000
3057
root -1.965896 32.865041 -7.281610 47.278787 -30.779801 -26.283399
Spine 3.740602 17.620580 0.286194
Head -21.281129 18.343098 -2.396848
LeftShoulder -18.965086 20.977692 14.679765
LeftArm -14.220946 -50.189942 -65.434968
LeftForeArm -26.061477 -0.000000 116.390402
LeftHand -14.310801 -0.000000 43.886233
LeftHandThumb1 -26.253704 0.000000 33.147579
RightShoulder 5.703152 22.504331 -7.797810
RightArm 42.061784 -45.559236 63.730637
RightForeArm -33.798641 -0.000000 35.106218
RightHand -14.839675 -0.000000 9.995817
RightHandThumb1 -24.326973 -0.000000 -32.862282
LeftUpLeg -46.672233 26.429641 -1.199619
LeftLeg 20.571107 -0.000000 -0.000000
LeftFoot -35.029521 37.305140 -28.855501
LeftToeBase 9.278759 -0.000000 -0.000000
RightUpLeg -4.222270 -50.083038 -7.796683
RightLeg 90.879531 -0.000000 -0.000000
RightFoot -24.454508 -2.630509 38.298875
RightToeBase 8.194631 -0.000000 -0.000000
3058
root -1.958289 32.850745 -7.285406 47.460865 -30.932161 -26.297401
Spine 3.691274 17.611682 0.202514
Head -21.329549 18.475549 -2.491267
LeftShoulder -19.021453 20.995094 14.651634
LeftArm -14.026458 -50.268832 -65.312955
LeftForeArm -26.296766 -0.000000 116.287471
LeftHand -14.424360 -0.000000 43.132819
LeftHandThumb1 -26.253704 0.000000 33.147579
RightShoulder 5.719058 22.587987 -7.709280
RightArm 42.003631 -45.373858 63.811668
RightForeArm -33.782814 -0.000000 35.464013
RightHand -14.856833 -0.000000 9.960304
RightHandThumb1 -24.326973 -0.000000 -32.862282
LeftUpLeg -46.988118 26.583935 -1.445480
LeftLeg 20.779553 -0.000000 -0.000000
LeftFoot -35.122093 37.218424 -28.850589
LeftToeBase 9.240242 -0.000000 -0.000000
RightUpLeg -4.447357 -49.773113 -7.784618
RightLeg 90.776226 -0.000000 -0.000000
RightFoot -24.470595 -2.783099 38.178334
RightToeBase 7.834311 -0.000000 -0.000000
3059
root -1.952360 32.839747 -7.290750 47.636547 -31.050403 -26.314750
Spine 3.664616 17.593148 0.153540
Head -21.429561 18.546519 -2.638410
LeftShoulder -19.113252 21.073578 14.605417
LeftArm -13.588286 -50.349315 -65.395347
LeftForeArm -26.559492 -0.000000 116.084313
LeftHand -14.486665 -0.000000 42.608934
LeftHandThumb1 -26.253704 0.000000 33.147579
RightShoulder 5.757430 22.656997 -7.648279
RightArm 41.923972 -45.138575 63.944038
RightForeArm -33.822685 -0.000000 35.802092
RightHand -14.832430 -0.000000 9.737734
RightHandThumb1 -24.326973 -0.000000 -32.862282
LeftUpLeg -47.278135 26.725925 -1.661633
LeftLeg 20.941814 -0.000000 -0.000000
LeftFoot -35.123339 37.157547 -28.744718
LeftToeBase 9.162749 -0.000000 -0.000000
RightUpLeg -4.658780 -49.474040 -7.741806
RightLeg 90.644054 -0.000000 -0.000000
RightFoot -24.563975 -2.817699 38.254783
RightToeBase 8.057772 -0.000000 -0.000000
3060
root -1.946664 32.830224 -7.294546 47.813613 -31.192147 -26.306211
Spine 3.610485 17.539912 0.059221
Head -21.485696 18.744466 -2.710523
LeftShoulder -19.170980 20.909991 14.613483
LeftArm -13.545782 -50.263143 -65.141469
LeftForeArm -26.832866 0.000000 115.888657
LeftHand -14.560873 -0.000000 42.034889
LeftHandThumb1 -26.253704 0.000000 33.147579
RightShoulder 5.845608 22.658354 -7.545092
RightArm 41.870333 -44.875908 64.082341
RightForeArm -33.634013 -0.000000 36.115494
RightHand -15.098677 -0.000000 9.070367
RightHandThumb1 -24.326973 -0.000000 -32.862282
LeftUpLeg -47.549346 26.862622 -1.920385
LeftLeg 21.033039 -0.000000 -0.000000
LeftFoot -35.141972 37.118457 -28.665537
LeftToeBase 9.191000 -0.000000 -0.000000
RightUpLeg -4.881241 -49.202807 -7.708665
RightLeg 90.474985 -0.000000 -0.000000
RightFoot -24.415415 -3.205944 37.726258
RightToeBase 6.918451 -0.000000 -0.000000
3061
root -1.943165 32.824558 -7.301878 48.018683 -31.284557 -26.307369
Spine 3.532805 17.560751 -0.012896
Head -21.558241 18.731412 -2.735329
LeftShoulder -19.181165 20.841729 14.654918
LeftArm -13.153034 -50.187723 -65.229774
LeftForeArm -26.986070 -0.000000 115.710998
LeftHand -14.630194 -0.000000 41.709251
LeftHandThumb1 -26.253704 0.000000 33.147579
RightShoulder 5.813467 22.720753 -7.486630
RightArm 41.522403 -44.484631 64.544991
RightForeArm -33.886900 -0.000000 36.489559
RightHand -14.917417 -0.000000 9.436343
RightHandThumb1 -24.326973 -0.000000 -32.862282
LeftUpLeg -47.855844 26.968987 -2.144815
LeftLeg 21.118749 -0.000000 -0.000000
LeftFoot -35.121093 37.113981 -28.583910
LeftToeBase 9.154204 -0.000000 -0.000000
RightUpLeg -5.116422 -48.941776 -7.601708
RightLeg 90.298470 -0.000000 -0.000000
RightFoot -24.523606 -3.074256 37.827680
RightToeBase 7.669373 -0.000000 -0.000000
3062
root -1.941770 32.820031 -7.308670 48.181962 -31.349157 -26.305594
Spine 3.500900 17.536891 -0.042618
Head -21.610018 18.895823 -2.764066
LeftShoulder -19.179798 20.771181 14.666601
LeftArm -12.840757 -50.063991 -65.236706
LeftForeArm -27.249553 -0.000000 115.543944
LeftHand -14.678396 -0.000000 41.598811
LeftHandThumb1 -26.253704 0.000000 33.147579
RightShoulder 5.818049 22.672774 -7.413232
RightArm 41.489406 -44.191188 64.649195
RightForeArm -33.831382 -0.000000 36.839741
RightHand -15.071804 -0.000000 8.961894
RightHandThumb1 -24.326973 -0.000000 -32.862282
LeftUpLeg -48.086187 27.053137 -2.329329
LeftLeg 21.134332 -0.000000 -0.000000
LeftFoot -35.107250 37.110506 -28.514060
LeftToeBase 9.153755 -0.000000 -0.000000
RightUpLeg -5.302941 -48.679033 -7.489246
RightLeg 90.092995 -0.000000 -0.000000
RightFoot -24.585923 -2.992751 38.142164
RightToeBase 7.687564 -0.000000 -0.000000
3063
root -1.936693 32.818434 -7.315981 48.301532 -31.392184 -26.280460
Spine 3.520387 17.539006 -0.046308
Head -21.645381 18.890459 -2.763481
LeftShoulder -19.151843 20.762825 14.705892
LeftArm -12.248829 -49.965926 -65.555547
LeftForeArm -27.325849 -0.000000 115.382220
LeftHand -14.903320 -0.000000 41.707342
LeftHandThumb1 -26.253704 0.000000 33.147579
RightShoulder 5.769199 22.642190 -7.378844
RightArm 41.426336 -43.898736 64.794225
RightForeArm -33.649193 0.000000 37.136238
RightHand -15.053525 0.000000 8.637266
RightHandThumb1 -24.326973 -0.000000 -32.862282
LeftUpLeg -48.248216 27.042425 -2.442429
LeftLeg 21.128516 -0.000000 -0.000000
LeftFoot -35.095117 37.173844 -28.488890
LeftToeBase 9.183739 -0.000000 -0.000000
RightUpLeg -5.423655 -48.473119 -7.422508
RightLeg 89.877324 -0.000000 -0.000000
RightFoot -24.470603 -3.062179 37.967768
RightToeBase 7.704414 -0.000000 -0.000000
3064
root -1.940789 32.818118 -7.323851 48.383086 -31.366800 -26.211931
Spine 3.544644 17.412502 -0.047130
Head -21.697657 18.995242 -2.708694
LeftShoulder -19.140284 20.674777 14.773111
LeftArm -11.915869 -49.810883 -65.665565
LeftForeArm -27.563935 0.000000 115.248497
LeftHand -14.885131 -0.000000 41.619257
LeftHandThumb1 -26.253704 0.000000 33.147579
RightShoulder 5.789494 22.667339 -7.317402
RightArm 41.239919 -43.598479 65.073367
RightForeArm -33.578153 -0.000000 37.433816
RightHand -15.198549 -0.000000 8.332037
RightHandThumb1 -24.326973 -0.000000 -32.862282
LeftUpLeg -48.375731 26.966044 -2.503149
LeftLeg 21.102659 -0.000000 -0.000000
LeftFoot -35.023434 37.241362 -28.406030
LeftToeBase 9.197886 -0.000000 -0.000000
RightUpLeg -5.471781 -48.314677 -7.333776
RightLeg 89.610573 -0.000000 -0.000000
RightFoot -24.456468 -2.946510 38.078150
RightToeBase 7.891175 -0.000000 -0.000000
3065
root -1.950614 32.820554 -7.332140 48.484364 -31.293469 -26.136172
Spine 3.523012 17.251998 -0.048989
Head -21.720790 19.125851 -2.592594
LeftShoulder -19.168396 20.589754 14.803691
LeftArm -11.540442 -49.582990 -65.732346
LeftForeArm -27.825675 -0.000000 115.170326
LeftHand -14.889166 -0.000000 41.751217
LeftHandThumb1 -26.253704 0.000000 33.147579
RightShoulder 5.778236 22.725570 -7.252797
RightArm 41.097981 -43.395831 65.303382
RightForeArm -33.517743 -0.000000 37.672984
RightHand -15.224519 -0.000000 8.085726
RightHandThumb1 -24.326973 -0.000000 -32.862282
LeftUpLeg -48.486741 26.821206 -2.505060
LeftLeg 21.018013 -0.000000 -0.000000
LeftFoot -34.963325 37.347148 -28.354007
LeftToeBase 9.255689 -0.000000 -0.000000
RightUpLeg -5.527040 -48.176106 -7.162502
RightLeg 89.290360 -0.000000 -0.000000
RightFoot -24.433597 -2.880236 38.109469
RightToeBase 8.241825 -0.000000 -0.000000
